# xmcd
#
# Track frame offsets: 
#        150
#        15733
#        32531
#        44987
#        60941
#        77536
#        92119
#        106495
#        119688
#
# Disc length: 1710 seconds
#
# Revision: 0
# Processed by: cddbd v1.5.2PL0 Copyright (c) Steve Scherf et al.
# Submitted via: ExactAudioCopy v0.99pb3
#
DISCID=7006ac09
DTITLE=Owen Saunders - 12 Gauge Fiddle
DYEAR=1900
DGENRE=Bluegrass
TTITLE0=Sally Johnson
TTITLE1=Come Walk With Me
TTITLE2=Huskie's Fiddle
TTITLE3=Grey Eagle
TTITLE4=Should Little Lulie
TTITLE5=Leather Britches
TTITLE6=Bully Of The Town
TTITLE7=Baby Ben
TTITLE8=Big Taters in Sandy Land
EXTD=
EXTT0=
EXTT1=
EXTT2=
EXTT3=
EXTT4=
EXTT5=
EXTT6=
EXTT7=
EXTT8=
PLAYORDER=
